<?xml version="1.0" encoding="UTF-8"?>
<svg id="Layer_2" data-name="Layer 2" xmlns="http://www.w3.org/2000/svg" viewBox="0 0 346.1 71.3">
  <defs>
    <style>
      .cls-1 {
        fill: #fff;
      }
    </style>
  </defs>
  <g id="Layer_1-2" data-name="Layer 1">
    <g>
      <path class="cls-1" d="m2.15,68.95c-1.43-1.43-2.15-3.32-2.15-5.65V7.3C0,4.97.63,3.17,1.9,1.9S4.97,0,7.3,0h34.4c2.53,0,4.4.5,5.6,1.5,1.2,1,1.8,2.57,1.8,4.7s-.6,3.6-1.8,4.6c-1.2,1-3.07,1.5-5.6,1.5H15.4v16.2h24.3c2.53,0,4.4.5,5.6,1.5,1.2,1,1.8,2.57,1.8,4.7s-.6,3.6-1.8,4.6c-1.2,1-3.07,1.5-5.6,1.5H15.4v22.5c0,2.4-.68,4.3-2.05,5.7-1.37,1.4-3.22,2.1-5.55,2.1s-4.22-.72-5.65-2.15Z"/>
      <path class="cls-1" d="m100.25,22.3c1.37,1.27,2.05,3,2.05,5.2v36.7c0,2.07-.72,3.73-2.15,5-1.43,1.27-3.28,1.9-5.55,1.9-2.13,0-3.83-.6-5.1-1.8-1.27-1.2-1.9-2.8-1.9-4.8v-1c-1.53,2.53-3.55,4.47-6.05,5.8-2.5,1.33-5.32,2-8.45,2-6.2,0-10.82-1.72-13.85-5.15-3.03-3.43-4.55-8.62-4.55-15.55v-23.1c0-2.2.68-3.93,2.05-5.2,1.37-1.27,3.22-1.9,5.55-1.9s4.17.63,5.5,1.9c1.33,1.27,2,3,2,5.2v23.4c0,2.93.62,5.1,1.85,6.5,1.23,1.4,3.12,2.1,5.65,2.1,2.93,0,5.32-1,7.15-3,1.83-2,2.75-4.63,2.75-7.9v-21.1c0-2.2.67-3.93,2-5.2,1.33-1.27,3.17-1.9,5.5-1.9s4.18.63,5.55,1.9Z"/>
      <path class="cls-1" d="m157.8,25.35c2.87,3.43,4.3,8.62,4.3,15.55v23.1c0,2.2-.68,3.93-2.05,5.2-1.37,1.27-3.22,1.9-5.55,1.9s-4.17-.63-5.5-1.9c-1.33-1.27-2-3-2-5.2v-22.4c0-3.33-.62-5.77-1.85-7.3-1.23-1.53-3.15-2.3-5.75-2.3-3.13,0-5.65,1-7.55,3s-2.85,4.67-2.85,8v21c0,2.2-.67,3.93-2,5.2-1.33,1.27-3.17,1.9-5.5,1.9s-4.18-.63-5.55-1.9c-1.37-1.27-2.05-3-2.05-5.2V27.3c0-2.07.72-3.73,2.15-5,1.43-1.27,3.28-1.9,5.55-1.9,2.07,0,3.75.62,5.05,1.85,1.3,1.23,1.95,2.82,1.95,4.75v1.4c1.73-2.67,3.98-4.7,6.75-6.1,2.77-1.4,5.88-2.1,9.35-2.1,5.87,0,10.23,1.72,13.1,5.15Z"/>
      <path class="cls-1" d="m229.35,40.25c2.23,2.97,3.35,6.62,3.35,10.95,0,5.93-2.18,10.63-6.55,14.1-4.37,3.47-10.38,5.2-18.05,5.2h-26.2c-2.33,0-4.13-.63-5.4-1.9-1.27-1.27-1.9-3.07-1.9-5.4V7.3c0-2.33.63-4.13,1.9-5.4s3.07-1.9,5.4-1.9h25.2c7.33,0,13.15,1.63,17.45,4.9,4.3,3.27,6.45,7.73,6.45,13.4,0,3.67-.98,6.88-2.95,9.65-1.97,2.77-4.68,4.78-8.15,6.05,4.07,1.2,7.22,3.28,9.45,6.25Zm-39.55-11.55h14.7c4,0,6.95-.68,8.85-2.05,1.9-1.37,2.85-3.45,2.85-6.25s-.95-5.08-2.85-6.45c-1.9-1.37-4.85-2.05-8.85-2.05h-14.7v16.8Zm25.5,27.8c1.87-1.4,2.8-3.67,2.8-6.8s-.93-5.43-2.8-6.9c-1.87-1.47-4.87-2.2-9-2.2h-16.5v18h16.5c4.13,0,7.13-.7,9-2.1Z"/>
      <path class="cls-1" d="m252.2,68.15c-3.93-2.1-6.97-5.07-9.1-8.9-2.13-3.83-3.2-8.35-3.2-13.55s1.07-9.72,3.2-13.55c2.13-3.83,5.17-6.78,9.1-8.85,3.93-2.07,8.5-3.1,13.7-3.1s9.77,1.03,13.7,3.1c3.93,2.07,6.97,5.02,9.1,8.85,2.13,3.83,3.2,8.35,3.2,13.55s-1.07,9.72-3.2,13.55c-2.13,3.83-5.17,6.8-9.1,8.9-3.93,2.1-8.5,3.15-13.7,3.15s-9.77-1.05-13.7-3.15Zm24.7-22.45c0-4.73-.95-8.27-2.85-10.6-1.9-2.33-4.62-3.5-8.15-3.5-7.33,0-11,4.7-11,14.1s3.67,14.1,11,14.1,11-4.7,11-14.1Z"/>
      <path class="cls-1" d="m346.1,64.4c0,1.8-.68,3.38-2.05,4.75-1.37,1.37-2.95,2.05-4.75,2.05s-3.47-.8-5-2.4l-13-14-12.9,14c-1.53,1.6-3.2,2.4-5,2.4s-3.48-.68-4.85-2.05c-1.37-1.37-2.05-2.98-2.05-4.85,0-1.73.73-3.37,2.2-4.9l13.5-14.1-12.6-13.1c-1.47-1.53-2.2-3.17-2.2-4.9,0-1.87.68-3.47,2.05-4.8,1.37-1.33,2.95-2,4.75-2s3.57.8,5.1,2.4l12,12.8,12.1-12.8c1.53-1.6,3.23-2.4,5.1-2.4s3.38.67,4.75,2c1.37,1.33,2.05,2.93,2.05,4.8,0,1.73-.73,3.37-2.2,4.9l-12.7,13.1,13.5,14.1c1.47,1.53,2.2,3.2,2.2,5Z"/>
    </g>
    <circle class="cls-1" cx="62" cy="10.5" r="6"/>
    <circle class="cls-1" cx="93" cy="10.5" r="6"/>
  </g>
</svg>